<mxfile host="app.diagrams.net" agent="Mozilla/5.0 (Windows NT 10.0; Win64; x64; rv:136.0) Gecko/20100101 Firefox/136.0" version="26.2.2">
  <diagram name="Seite-1" id="rhLQHYQ506gaf-KCEk96">
    <mxGraphModel dx="1051" dy="639" grid="1" gridSize="10" guides="1" tooltips="1" connect="1" arrows="1" fold="1" page="1" pageScale="1" pageWidth="827" pageHeight="1169" math="0" shadow="0">
      <root>
        <mxCell id="0" />
        <mxCell id="1" parent="0" />
        <mxCell id="DnWhWG8Am8-T-b02I695-10" style="edgeStyle=orthogonalEdgeStyle;rounded=0;orthogonalLoop=1;jettySize=auto;html=1;exitX=0.25;exitY=1;exitDx=0;exitDy=0;entryX=0.25;entryY=0;entryDx=0;entryDy=0;" parent="1" source="DnWhWG8Am8-T-b02I695-1" target="DnWhWG8Am8-T-b02I695-4" edge="1">
          <mxGeometry relative="1" as="geometry" />
        </mxCell>
        <mxCell id="DnWhWG8Am8-T-b02I695-11" value="Aktualisierung" style="edgeLabel;html=1;align=center;verticalAlign=middle;resizable=0;points=[];" parent="DnWhWG8Am8-T-b02I695-10" vertex="1" connectable="0">
          <mxGeometry x="0.0098" y="1" relative="1" as="geometry">
            <mxPoint as="offset" />
          </mxGeometry>
        </mxCell>
        <mxCell id="DnWhWG8Am8-T-b02I695-1" value="Controller" style="rounded=1;whiteSpace=wrap;html=1;" parent="1" vertex="1">
          <mxGeometry x="80" y="120" width="120" height="40" as="geometry" />
        </mxCell>
        <mxCell id="DnWhWG8Am8-T-b02I695-3" value="View" style="rounded=1;whiteSpace=wrap;html=1;" parent="1" vertex="1">
          <mxGeometry x="400" y="120" width="120" height="40" as="geometry" />
        </mxCell>
        <mxCell id="DnWhWG8Am8-T-b02I695-12" style="edgeStyle=orthogonalEdgeStyle;rounded=0;orthogonalLoop=1;jettySize=auto;html=1;exitX=0.75;exitY=0;exitDx=0;exitDy=0;entryX=0.75;entryY=1;entryDx=0;entryDy=0;" parent="1" source="DnWhWG8Am8-T-b02I695-4" target="DnWhWG8Am8-T-b02I695-1" edge="1">
          <mxGeometry relative="1" as="geometry" />
        </mxCell>
        <mxCell id="DnWhWG8Am8-T-b02I695-13" value="Benachrichtigung" style="edgeLabel;html=1;align=center;verticalAlign=middle;resizable=0;points=[];" parent="DnWhWG8Am8-T-b02I695-12" vertex="1" connectable="0">
          <mxGeometry x="0.496" y="-1" relative="1" as="geometry">
            <mxPoint as="offset" />
          </mxGeometry>
        </mxCell>
        <mxCell id="DnWhWG8Am8-T-b02I695-14" style="edgeStyle=orthogonalEdgeStyle;rounded=0;orthogonalLoop=1;jettySize=auto;html=1;exitX=1;exitY=0.5;exitDx=0;exitDy=0;entryX=0.5;entryY=1;entryDx=0;entryDy=0;" parent="1" source="DnWhWG8Am8-T-b02I695-4" target="DnWhWG8Am8-T-b02I695-3" edge="1">
          <mxGeometry relative="1" as="geometry" />
        </mxCell>
        <mxCell id="DnWhWG8Am8-T-b02I695-15" value="Benachrichtigung" style="edgeLabel;html=1;align=center;verticalAlign=middle;resizable=0;points=[];" parent="DnWhWG8Am8-T-b02I695-14" vertex="1" connectable="0">
          <mxGeometry x="-0.3814" y="-2" relative="1" as="geometry">
            <mxPoint as="offset" />
          </mxGeometry>
        </mxCell>
        <mxCell id="DnWhWG8Am8-T-b02I695-4" value="Model" style="rounded=1;whiteSpace=wrap;html=1;" parent="1" vertex="1">
          <mxGeometry x="80" y="280" width="120" height="40" as="geometry" />
        </mxCell>
        <mxCell id="DnWhWG8Am8-T-b02I695-5" value="MVC __Model View Controller" style="text;html=1;align=left;verticalAlign=middle;whiteSpace=wrap;rounded=0;fontStyle=1;fontSize=14;spacingLeft=10;" parent="1" vertex="1">
          <mxGeometry x="80" y="40" width="680" height="40" as="geometry" />
        </mxCell>
        <mxCell id="DnWhWG8Am8-T-b02I695-6" value="" style="endArrow=classic;html=1;rounded=0;exitX=0;exitY=0.25;exitDx=0;exitDy=0;entryX=1;entryY=0.25;entryDx=0;entryDy=0;" parent="1" source="DnWhWG8Am8-T-b02I695-3" target="DnWhWG8Am8-T-b02I695-1" edge="1">
          <mxGeometry width="50" height="50" relative="1" as="geometry">
            <mxPoint x="230" y="230" as="sourcePoint" />
            <mxPoint x="280" y="180" as="targetPoint" />
          </mxGeometry>
        </mxCell>
        <mxCell id="DnWhWG8Am8-T-b02I695-7" value="Nutzeraktion" style="edgeLabel;html=1;align=center;verticalAlign=middle;resizable=0;points=[];" parent="DnWhWG8Am8-T-b02I695-6" vertex="1" connectable="0">
          <mxGeometry x="-0.0303" y="1" relative="1" as="geometry">
            <mxPoint as="offset" />
          </mxGeometry>
        </mxCell>
        <mxCell id="DnWhWG8Am8-T-b02I695-8" value="" style="endArrow=classic;html=1;rounded=0;exitX=1;exitY=0.75;exitDx=0;exitDy=0;entryX=0;entryY=0.75;entryDx=0;entryDy=0;" parent="1" source="DnWhWG8Am8-T-b02I695-1" target="DnWhWG8Am8-T-b02I695-3" edge="1">
          <mxGeometry width="50" height="50" relative="1" as="geometry">
            <mxPoint x="230" y="230" as="sourcePoint" />
            <mxPoint x="280" y="180" as="targetPoint" />
          </mxGeometry>
        </mxCell>
        <mxCell id="DnWhWG8Am8-T-b02I695-9" value="Aktualisierung" style="edgeLabel;html=1;align=center;verticalAlign=middle;resizable=0;points=[];" parent="DnWhWG8Am8-T-b02I695-8" vertex="1" connectable="0">
          <mxGeometry x="0.0166" relative="1" as="geometry">
            <mxPoint as="offset" />
          </mxGeometry>
        </mxCell>
        <mxCell id="DnWhWG8Am8-T-b02I695-16" value="MVC __Model View Controller &lt;font style=&quot;font-size: 12px; font-weight: normal;&quot;&gt;[ klassisches Modell ]&lt;/font&gt;" style="text;html=1;align=left;verticalAlign=middle;whiteSpace=wrap;rounded=0;fontStyle=1;fontSize=14;spacingLeft=10;" parent="1" vertex="1">
          <mxGeometry x="80" y="360" width="680" height="40" as="geometry" />
        </mxCell>
        <mxCell id="DnWhWG8Am8-T-b02I695-17" value="Client (Browser)" style="whiteSpace=wrap;html=1;" parent="1" vertex="1">
          <mxGeometry x="254" y="480" width="466" height="80" as="geometry" />
        </mxCell>
        <mxCell id="DnWhWG8Am8-T-b02I695-18" value="" style="whiteSpace=wrap;html=1;verticalAlign=top;align=center;" parent="1" vertex="1">
          <mxGeometry x="200" y="640" width="560" height="280" as="geometry" />
        </mxCell>
        <mxCell id="DnWhWG8Am8-T-b02I695-19" value="Server&lt;div&gt;&lt;br/&gt;&lt;/div&gt;" style="rounded=0;whiteSpace=wrap;html=1;verticalAlign=top;align=left;spacingLeft=5;" parent="1" vertex="1">
          <mxGeometry x="250" y="660" width="470" height="220" as="geometry" />
        </mxCell>
        <mxCell id="DnWhWG8Am8-T-b02I695-20" value="Routing Engine" style="rounded=0;whiteSpace=wrap;html=1;" parent="1" vertex="1">
          <mxGeometry x="280" y="710" width="100" height="30" as="geometry" />
        </mxCell>
        <mxCell id="DnWhWG8Am8-T-b02I695-22" value="Template Engine" style="rounded=0;whiteSpace=wrap;html=1;" parent="1" vertex="1">
          <mxGeometry x="280" y="755" width="100" height="30" as="geometry" />
        </mxCell>
        <mxCell id="DnWhWG8Am8-T-b02I695-26" style="edgeStyle=orthogonalEdgeStyle;rounded=0;orthogonalLoop=1;jettySize=auto;html=1;exitX=1;exitY=0.25;exitDx=0;exitDy=0;entryX=0;entryY=0.25;entryDx=0;entryDy=0;" parent="1" source="DnWhWG8Am8-T-b02I695-23" target="DnWhWG8Am8-T-b02I695-24" edge="1">
          <mxGeometry relative="1" as="geometry" />
        </mxCell>
        <mxCell id="DnWhWG8Am8-T-b02I695-23" value="Controller" style="rounded=1;whiteSpace=wrap;html=1;" parent="1" vertex="1">
          <mxGeometry x="440" y="710" width="80" height="30" as="geometry" />
        </mxCell>
        <mxCell id="DnWhWG8Am8-T-b02I695-24" value="View" style="rounded=1;whiteSpace=wrap;html=1;" parent="1" vertex="1">
          <mxGeometry x="600" y="710" width="80" height="30" as="geometry" />
        </mxCell>
        <mxCell id="DnWhWG8Am8-T-b02I695-25" value="Model" style="rounded=1;whiteSpace=wrap;html=1;" parent="1" vertex="1">
          <mxGeometry x="570" y="800" width="80" height="30" as="geometry" />
        </mxCell>
        <mxCell id="DnWhWG8Am8-T-b02I695-28" value="" style="endArrow=classic;html=1;rounded=0;exitX=1;exitY=0.5;exitDx=0;exitDy=0;entryX=0.75;entryY=1;entryDx=0;entryDy=0;" parent="1" source="DnWhWG8Am8-T-b02I695-25" target="DnWhWG8Am8-T-b02I695-24" edge="1">
          <mxGeometry width="50" height="50" relative="1" as="geometry">
            <mxPoint x="370" y="770" as="sourcePoint" />
            <mxPoint x="420" y="720" as="targetPoint" />
            <Array as="points">
              <mxPoint x="660" y="815" />
            </Array>
          </mxGeometry>
        </mxCell>
        <mxCell id="DnWhWG8Am8-T-b02I695-32" value="" style="endArrow=classic;html=1;rounded=0;exitX=0;exitY=0.25;exitDx=0;exitDy=0;entryX=0.75;entryY=1;entryDx=0;entryDy=0;" parent="1" source="DnWhWG8Am8-T-b02I695-25" target="DnWhWG8Am8-T-b02I695-23" edge="1">
          <mxGeometry width="50" height="50" relative="1" as="geometry">
            <mxPoint x="520" y="830" as="sourcePoint" />
            <mxPoint x="570" y="780" as="targetPoint" />
            <Array as="points">
              <mxPoint x="500" y="808" />
            </Array>
          </mxGeometry>
        </mxCell>
        <mxCell id="DnWhWG8Am8-T-b02I695-34" value="" style="endArrow=classic;html=1;rounded=0;exitX=0.5;exitY=1;exitDx=0;exitDy=0;entryX=0;entryY=0.75;entryDx=0;entryDy=0;" parent="1" source="DnWhWG8Am8-T-b02I695-23" target="DnWhWG8Am8-T-b02I695-25" edge="1">
          <mxGeometry width="50" height="50" relative="1" as="geometry">
            <mxPoint x="460" y="760" as="sourcePoint" />
            <mxPoint x="510" y="710" as="targetPoint" />
            <Array as="points">
              <mxPoint x="480" y="820" />
            </Array>
          </mxGeometry>
        </mxCell>
        <mxCell id="DnWhWG8Am8-T-b02I695-35" value="" style="endArrow=classic;html=1;rounded=0;exitX=0;exitY=0.5;exitDx=0;exitDy=0;" parent="1" source="DnWhWG8Am8-T-b02I695-23" target="DnWhWG8Am8-T-b02I695-20" edge="1">
          <mxGeometry width="50" height="50" relative="1" as="geometry">
            <mxPoint x="460" y="760" as="sourcePoint" />
            <mxPoint x="510" y="710" as="targetPoint" />
          </mxGeometry>
        </mxCell>
        <mxCell id="DnWhWG8Am8-T-b02I695-36" value="" style="endArrow=classic;html=1;rounded=0;exitX=0.25;exitY=1;exitDx=0;exitDy=0;entryX=1;entryY=0.5;entryDx=0;entryDy=0;" parent="1" source="DnWhWG8Am8-T-b02I695-23" target="DnWhWG8Am8-T-b02I695-22" edge="1">
          <mxGeometry width="50" height="50" relative="1" as="geometry">
            <mxPoint x="460" y="760" as="sourcePoint" />
            <mxPoint x="510" y="710" as="targetPoint" />
            <Array as="points">
              <mxPoint x="460" y="770" />
            </Array>
          </mxGeometry>
        </mxCell>
        <mxCell id="DnWhWG8Am8-T-b02I695-37" value="" style="endArrow=classic;html=1;rounded=0;exitX=0.25;exitY=1;exitDx=0;exitDy=0;entryX=0.5;entryY=0;entryDx=0;entryDy=0;" parent="1" source="DnWhWG8Am8-T-b02I695-17" target="DnWhWG8Am8-T-b02I695-20" edge="1">
          <mxGeometry width="50" height="50" relative="1" as="geometry">
            <mxPoint x="460" y="720" as="sourcePoint" />
            <mxPoint x="510" y="670" as="targetPoint" />
          </mxGeometry>
        </mxCell>
        <mxCell id="DnWhWG8Am8-T-b02I695-39" value="HTTP - Request" style="edgeLabel;html=1;align=center;verticalAlign=middle;resizable=0;points=[];" parent="DnWhWG8Am8-T-b02I695-37" vertex="1" connectable="0">
          <mxGeometry x="-0.3608" y="2" relative="1" as="geometry">
            <mxPoint as="offset" />
          </mxGeometry>
        </mxCell>
        <mxCell id="DnWhWG8Am8-T-b02I695-38" value="" style="endArrow=classic;html=1;rounded=0;exitX=0.5;exitY=0;exitDx=0;exitDy=0;entryX=0.75;entryY=1;entryDx=0;entryDy=0;" parent="1" source="DnWhWG8Am8-T-b02I695-24" target="DnWhWG8Am8-T-b02I695-17" edge="1">
          <mxGeometry width="50" height="50" relative="1" as="geometry">
            <mxPoint x="460" y="720" as="sourcePoint" />
            <mxPoint x="510" y="670" as="targetPoint" />
          </mxGeometry>
        </mxCell>
        <mxCell id="DnWhWG8Am8-T-b02I695-40" value="HTTP - Response" style="edgeLabel;html=1;align=center;verticalAlign=middle;resizable=0;points=[];" parent="DnWhWG8Am8-T-b02I695-38" vertex="1" connectable="0">
          <mxGeometry x="0.3882" relative="1" as="geometry">
            <mxPoint as="offset" />
          </mxGeometry>
        </mxCell>
        <mxCell id="DnWhWG8Am8-T-b02I695-41" value="" style="rounded=0;whiteSpace=wrap;html=1;" parent="1" vertex="1">
          <mxGeometry x="200" y="1000" width="560" height="40" as="geometry" />
        </mxCell>
      </root>
    </mxGraphModel>
  </diagram>
</mxfile>
